<svg xmlns="http://www.w3.org/2000/svg" id="Layer_1" width="510" height="345" viewBox="0 0 510 345"><defs><style>.cls-1{letter-spacing:0em;}.cls-2{letter-spacing:0em;}.cls-3{letter-spacing:-.02em;}.cls-4{fill:#002b49;}.cls-5{fill:#0091bd;}.cls-6,.cls-7{fill:#333e48;}.cls-8{letter-spacing:0em;}.cls-9{letter-spacing:-.01em;}.cls-10{letter-spacing:-.02em;}.cls-11{letter-spacing:0em;}.cls-12{letter-spacing:0em;}.cls-13{letter-spacing:0em;}.cls-14{letter-spacing:0em;}.cls-15{fill:#fff;}.cls-15,.cls-7{font-family:Lato-Medium, Lato;font-size:18px;font-weight:500;}.cls-16{letter-spacing:0em;}.cls-17{letter-spacing:0em;}.cls-18{fill:none;stroke:#333e48;stroke-miterlimit:10;}.cls-19{letter-spacing:-.02em;}.cls-20{letter-spacing:0em;}.cls-21{letter-spacing:-.02em;}.cls-22{letter-spacing:0em;}</style></defs><rect class="cls-5" x="150" y="105" width="270" height="60"/><text class="cls-15" transform="translate(252.5 141.64)"><tspan class="cls-16" x="0" y="0">R</tspan><tspan x="11.22" y="0">ich OS</tspan></text><text class="cls-7" transform="translate(89.95 291.64)"><tspan x="0" y="0">EL3</tspan></text><text class="cls-7" transform="translate(88.98 216.64)"><tspan x="0" y="0">EL2</tspan></text><text class="cls-7" transform="translate(88.98 141.64)"><tspan x="0" y="0">EL1</tspan></text><text class="cls-7" transform="translate(88.98 66.64)"><tspan x="0" y="0">EL0</tspan></text><rect class="cls-5" x="150" y="180" width="270" height="60"/><text class="cls-15" transform="translate(241.41 216.64)"><tspan class="cls-9" x="0" y="0">H</tspan><tspan class="cls-22" x="13.58" y="0">yperviso</tspan><tspan class="cls-3" x="80.95" y="0">r</tspan></text><rect class="cls-4" x="150" y="255" width="270" height="60"/><text class="cls-15" transform="translate(177.74 291.64)"><tspan class="cls-13" x="0" y="0">F</tspan><tspan x="10.14" y="0">ir</tspan><tspan class="cls-1" x="21.12" y="0">m</tspan><tspan class="cls-8" x="35.95" y="0">w</tspan><tspan class="cls-2" x="50.05" y="0">a</tspan><tspan class="cls-21" x="59.04" y="0">r</tspan><tspan x="65.29" y="0">e / </tspan><tspan class="cls-20" x="92.11" y="0">S</tspan><tspan x="101.86" y="0">ecu</tspan><tspan class="cls-21" x="130.07" y="0">r</tspan><tspan x="136.32" y="0">e </tspan><tspan class="cls-19" x="150.4" y="0">M</tspan><tspan x="166.9" y="0">oni</tspan><tspan class="cls-1" x="191.6" y="0">t</tspan><tspan x="198.06" y="0">o</tspan><tspan class="cls-3" x="208.3" y="0">r</tspan></text><rect class="cls-5" x="150" y="30" width="270" height="60"/><text class="cls-15" transform="translate(240.07 66.64)"><tspan class="cls-13" x="0" y="0">A</tspan><tspan x="12.23" y="0">pplic</tspan><tspan class="cls-12" x="49.78" y="0">a</tspan><tspan x="58.65" y="0">tion</tspan></text><g><line class="cls-18" x1="450" y1="264.26" x2="450" y2="90"/><polygon class="cls-6" points="453.99 263.09 450 270 446.01 263.09 453.99 263.09"/></g><text class="cls-7" transform="translate(472.73 256.05) rotate(-90)"><tspan class="cls-11" x="0" y="0">I</tspan><tspan x="4.98" y="0">nc</tspan><tspan class="cls-10" x="23.66" y="0">r</tspan><tspan x="29.92" y="0">easing privile</tspan><tspan class="cls-14" x="133.32" y="0">g</tspan><tspan x="142.57" y="0">e</tspan></text><g><line class="cls-18" x1="60" y1="95.74" x2="60" y2="270"/><polygon class="cls-6" points="56.01 96.91 60 90 63.99 96.91 56.01 96.91"/></g><text class="cls-7" transform="translate(45.23 260.07) rotate(-90)"><tspan class="cls-16" x="0" y="0">D</tspan><tspan x="13.56" y="0">ec</tspan><tspan class="cls-10" x="31.71" y="0">r</tspan><tspan x="37.96" y="0">easing privile</tspan><tspan class="cls-17" x="141.36" y="0">g</tspan><tspan x="150.61" y="0">e</tspan></text></svg>